<svg id="Layer_1" data-name="Layer 1" xmlns="http://www.w3.org/2000/svg" xmlns:xlink="http://www.w3.org/1999/xlink" viewBox="0 0 800 800"><defs><style>.cls-1{fill:#001c21;}.cls-2{fill:url(#linear-gradient);}.cls-3{fill:#0095c6;}.cls-4,.cls-5{fill:#fff;}.cls-5{font-size:76px;font-family:ProximaNova-Bold, Proxima Nova;font-weight:700;}.cls-6{letter-spacing:-0.01em;}.cls-7{letter-spacing:-0.06em;}.cls-8{letter-spacing:-0.02em;}.cls-9{letter-spacing:-0.01em;}.cls-10{letter-spacing:0em;}.cls-11{letter-spacing:-0.02em;}</style><linearGradient id="linear-gradient" x1="589.16" y1="168.62" x2="174.98" y2="602.33" gradientUnits="userSpaceOnUse"><stop offset="0" stop-color="#009aca"/><stop offset="0.67" stop-color="#00a3d3"/><stop offset="0.99" stop-color="#00aada"/></linearGradient></defs><title>icon</title><rect class="cls-1" x="0.48" width="799.52" height="806"/><rect class="cls-2" x="107.47" y="74.2" width="585.02" height="585.02" rx="26.02" ry="26.02"/><path class="cls-3" d="M666.47,79.41a20.84,20.84,0,0,1,20.82,20.82v533A20.84,20.84,0,0,1,666.47,654h-533a20.84,20.84,0,0,1-20.82-20.82v-533a20.84,20.84,0,0,1,20.82-20.82h533m0-10.41h-533a31.32,31.32,0,0,0-31.23,31.23v533a31.32,31.32,0,0,0,31.23,31.23h533A31.32,31.32,0,0,0,697.7,633.2v-533A31.32,31.32,0,0,0,666.47,69Z"/><polygon class="cls-3" points="186.97 479.98 394.95 664.3 685.6 657.02 693.92 302.88 561.25 205.24 191.13 214.6 186.97 479.98"/><path class="cls-4" d="M593.08,265.22V507.77H249.56V265.22H593.08m5.2-20.82H244.36A15.66,15.66,0,0,0,228.74,260V513a15.66,15.66,0,0,0,15.61,15.61H598.29A15.66,15.66,0,0,0,613.9,513V260a15.66,15.66,0,0,0-15.61-15.61Z"/><polygon class="cls-4" points="560.81 465.09 279.75 465.09 388.01 326.64 454.63 405.75 482.74 381.81 560.81 465.09"/><circle class="cls-4" cx="467.64" cy="332.36" r="24.46"/><path class="cls-4" d="M228.74,468.21H206.88V225.67H550.4V244.4h20.82V220.46a15.66,15.66,0,0,0-15.61-15.61H201.68a15.66,15.66,0,0,0-15.61,15.61v253A15.66,15.66,0,0,0,201.68,489h27.07Z"/><text class="cls-5" transform="translate(102.85 753.91)"><tspan class="cls-6">C</tspan><tspan class="cls-7" x="51.68" y="0">A</tspan><tspan class="cls-8" x="98.8" y="0">T</tspan><tspan x="141.21" y="0">CH </tspan><tspan class="cls-9" x="268.43" y="0">G</tspan><tspan class="cls-10" x="322.62" y="0">ALLE</tspan><tspan class="cls-11" x="498.4" y="0">R</tspan><tspan x="545.9" y="0">Y</tspan></text></svg>